# xmcd
#
# Track frame offsets:
#	150
#	64310
#	92183
#
# Disc length: 1638
#
# Revision: 2
# Processed by: cddbd v1.5.1PL0 Copyright (c) Steve Scherf et al.
# Submitted via: EasyCDDAExtractor 6.5.0.1
# Normalized: r1:DSETVAR1
#
DISCID=24066403
DTITLE=Various Artist - NRG For The 90's Volume 40 US CD Version
DYEAR=1900
DGENRE=
TTITLE0=Newton - Megamix(The Newton Medley-NRG For The 90's Volume 40 US CD Version)
TTITLE1=Jimmy Somerville - Lay Down(NRG For The 90's Volume 40 US CD Version)
TTITLE2=Soozy Q - Now That We've Found Love(NRG For The 90's Volume 40 US CD Version)
EXTD=
EXTT0=
EXTT1=
EXTT2=
PLAYORDER=
